<svg width="50" height="49" viewBox="0 0 50 49" fill="none" xmlns="http://www.w3.org/2000/svg">
<rect x="1" y="0.5" width="48" height="48" rx="24" fill="white"/>
<rect x="1" y="0.5" width="48" height="48" rx="24" stroke="#F2F2F2"/>
<path d="M25 12.5C25 12.5 16.5066 23.3197 16.5066 28.0066C16.5066 32.6934 20.3123 36.5 25 36.5C29.6877 36.5 33.4934 32.6896 33.4934 28.0066C33.4934 23.3236 25 12.5 25 12.5ZM25 34.3644C24.7434 34.3564 24.5396 34.1461 24.5396 33.8893C24.5396 33.6327 24.7434 33.4224 25 33.4144C28.3896 33.4144 31.1517 30.6521 31.1517 27.2627V27.2625C31.1598 27.006 31.3702 26.8021 31.6268 26.8021C31.8835 26.8021 32.0939 27.006 32.102 27.2625C32.1215 31.1859 28.9233 34.3643 25.0001 34.3643L25 34.3644Z" fill="#78A1FF"/>
</svg>
