<svg width="50" height="49" viewBox="0 0 50 49" fill="none" xmlns="http://www.w3.org/2000/svg">
<rect x="1" y="0.5" width="48" height="48" rx="24" fill="white"/>
<rect x="1" y="0.5" width="48" height="48" rx="24" stroke="#F2F2F2"/>
<path d="M36.6348 15.9962C36.9179 15.7118 36.8335 15.1203 36.476 14.7627L34.7372 13.024C34.3797 12.6664 33.7882 12.582 33.5201 12.8501L31.6239 14.4314L35.0683 17.8759L36.6348 15.9962Z" fill="#78A1FF"/>
<path d="M33.8676 25.3694L24.1306 15.6324C24.0347 15.5364 23.8786 15.5366 23.7829 15.6324C23.6871 15.7281 23.6869 15.8842 23.7829 15.9801L33.5199 25.7171C33.6158 25.8131 33.7719 25.8129 33.8676 25.7171C33.9634 25.6214 33.9636 25.4653 33.8676 25.3694Z" fill="#78A1FF"/>
<path d="M34.9109 18.414L31.0856 14.5887C29.1199 12.623 26.2392 13.9848 24.6556 15.4615L34.0382 24.844C35.5149 23.2605 36.8767 20.3798 34.911 18.414L34.9109 18.414Z" fill="#78A1FF"/>
<path d="M20.1317 19.9794C19.5781 20.5331 19.087 21.1977 18.6118 21.8402L12.3298 30.2122C11.6558 31.2236 11.7134 32.4266 12.481 33.1942L16.3063 37.0194C17.0738 37.787 18.2768 37.8446 19.2997 37.1626L27.4749 31.0708C27.872 30.7774 28.8643 30.0254 29.5209 29.3689L32.9984 25.8913L23.6091 16.5021L20.1317 19.9794Z" fill="#78A1FF"/>
</svg>
