<svg width="88" height="88" viewBox="0 0 88 88" fill="none" xmlns="http://www.w3.org/2000/svg">
<path d="M36.9966 23.8334L28.0866 8.56173C27.5829 7.69773 26.9079 6.94587 26.1029 6.35241C25.2979 5.75894 24.38 5.3364 23.4057 5.11076C22.4314 4.88513 21.4212 4.86117 20.4373 5.04036C19.4534 5.21955 18.5165 5.5981 17.6843 6.15273L7.66329 12.8334" stroke="white" stroke-width="3" stroke-linecap="round" stroke-linejoin="round"/>
<path d="M51.5 23.8333H28.7357C28.1089 23.8335 27.4926 23.9944 26.9457 24.3006C26.3988 24.6068 25.9395 25.0481 25.6117 25.5823L18.9237 36.4613C15.1574 42.589 13.1635 49.6408 13.1633 56.8333C13.1633 73.4213 24.9663 82.8997 36.9967 86.1667H55.33C67.3603 82.8997 79.1633 73.4213 79.1633 56.8333C79.1663 51.1309 77.9145 45.4978 75.4967 40.3333" stroke="white" stroke-width="3" stroke-linecap="round" stroke-linejoin="round"/>
<path d="M64.4967 14.3333C65.5575 14.3333 66.5746 14.7551 67.3248 15.5052C68.0749 16.2554 68.4967 17.2725 68.4967 18.3333C68.4967 19.3942 68.0749 20.4113 67.3248 21.1615C66.5746 21.9116 65.5575 22.3333 64.4967 22.3333C63.4358 22.3333 62.4187 21.9116 61.6685 21.1615C60.9184 20.4113 60.4967 19.3942 60.4967 18.3333C60.4967 17.2725 60.9184 16.2554 61.6685 15.5052C62.4187 14.7551 63.4358 14.3333 64.4967 14.3333Z" stroke="white" stroke-width="3" stroke-linecap="round" stroke-linejoin="round"/>
<path d="M64.4967 23.8333V25.102C64.4956 26.6131 64.9498 28.0895 65.8001 29.3387C66.6503 30.5879 67.8572 31.552 69.2633 32.1053C70.0605 32.417 70.9188 32.5408 71.7715 32.467C72.6243 32.3933 73.4485 32.1239 74.1803 31.68C74.8307 31.1217 75.3439 30.4212 75.6803 29.6328C76.0166 28.8444 76.1671 27.9892 76.12 27.1333C76.0307 25.6238 75.4887 24.1761 74.5645 22.9792C73.6403 21.7823 72.3769 20.8916 70.939 20.4233L69.729 20.031L70.9353 20.4233C72.3739 20.8908 73.92 20.9135 75.3716 20.4883C76.8232 20.063 78.1127 19.2098 79.0717 18.04C79.6118 17.377 79.9919 16.5985 80.1827 15.7649C80.3734 14.9313 80.3697 14.0649 80.1717 13.233C79.8396 12.4431 79.3302 11.7403 78.6829 11.1789C78.0357 10.6174 77.2679 10.2125 76.439 9.99533C74.9761 9.61384 73.4321 9.68234 72.0088 10.1919C70.5854 10.7015 69.3488 11.6284 68.4603 12.8517L67.727 13.882L68.4603 12.8517C69.3475 11.6321 69.8471 10.1738 69.8942 8.6665C69.9413 7.15915 69.5337 5.67252 68.7243 4.4C68.2643 3.67605 67.6436 3.06789 66.9104 2.62276C66.1772 2.17762 65.3512 1.90748 64.4967 1.83333C63.6417 1.90776 62.8154 2.17798 62.0816 2.62306C61.3478 3.06815 60.7264 3.67616 60.2653 4.4C59.452 5.67034 59.0394 7.15593 59.0812 8.66379C59.1231 10.1716 59.6174 11.6321 60.5 12.8553L61.2333 13.8857L60.5 12.8553C59.6112 11.6316 58.3738 10.7047 56.9496 10.1957C55.5254 9.68675 53.9807 9.61947 52.5177 10.0027C51.6891 10.2184 50.9216 10.6224 50.2748 11.1834C49.628 11.7443 49.1194 12.447 48.7887 13.2367C48.5904 14.0692 48.5865 14.9361 48.7772 15.7704C48.968 16.6046 49.3483 17.3837 49.8887 18.0473C50.8475 19.2162 52.1366 20.0686 53.5875 20.4931C55.0384 20.9177 56.5837 20.8946 58.0213 20.427L59.2313 20.0347L58.025 20.427C56.5932 20.8999 55.3364 21.7921 54.4178 22.9879C53.4992 24.1837 52.9611 25.628 52.8733 27.1333C52.8231 27.9882 52.9706 28.8431 53.3045 29.6316C53.6384 30.4202 54.1495 31.1211 54.7983 31.68C55.531 32.1235 56.3559 32.3925 57.2091 32.4662C58.0623 32.54 58.9211 32.4165 59.719 32.1053C61.1249 31.5527 62.3316 30.5892 63.1819 29.3407C64.0322 28.0921 64.4865 26.6163 64.4857 25.1057L64.4967 23.8333Z" stroke="white" stroke-width="3" stroke-linecap="round" stroke-linejoin="round"/>
<path d="M18.9237 36.4613C22.521 40.0779 27.4004 42.1283 32.5013 42.1667C37.6021 42.2052 42.5119 40.2286 46.1633 36.6667C49.8066 40.225 54.7071 42.2015 59.7997 42.1667C62.6098 42.1695 65.3849 41.5431 67.9213 40.3333" stroke="white" stroke-width="3" stroke-linecap="round" stroke-linejoin="round"/>
</svg>
