<svg width="50" height="49" viewBox="0 0 50 49" fill="none" xmlns="http://www.w3.org/2000/svg">
<rect x="1" y="0.5" width="48" height="48" rx="24" fill="white"/>
<rect x="1" y="0.5" width="48" height="48" rx="24" stroke="#F2F2F2"/>
<path d="M31.6974 15.1676C29.7271 15.1676 28.1138 16.6951 27.9764 18.6304H22.3421L20.9212 12.5L14.572 12.5003V13.4746H20.1196L21.2981 18.6308L15.5123 18.6305C15.5123 18.6305 14.5805 18.676 14.9429 19.9201L16.1854 25.7224C16.1854 25.7224 16.4441 26.6438 16.9102 27.1966L18.6701 35.1645C18.6701 35.1645 18.9291 36.2699 20.1196 36.5H26.7133C27.9038 36.2699 28.1628 35.1645 28.1628 35.1645L29.923 27.1966C30.3886 26.6438 30.6478 25.7224 30.6478 25.7224L31.3147 22.6087C31.4407 22.6216 31.5684 22.6284 31.6976 22.6284C33.7582 22.6284 35.428 20.9583 35.428 18.8982C35.4277 16.8381 33.7574 15.1678 31.6973 15.1678L31.6974 15.1676ZM34.3616 17.1297L31.9742 18.6215L33.4657 16.2339L34.3616 17.1297ZM32.3306 15.7641L31.6969 18.5065L31.0637 15.7641H32.3306ZM28.5632 18.6305V18.2646L30.1468 18.6305H28.5632ZM29.0335 17.1298L29.9294 16.234L31.4211 18.6213L29.0335 17.1298ZM31.4382 22.0324L31.8674 20.0272L32.3304 22.0324H31.4382ZM33.4657 21.562L31.9739 19.1746L34.3613 20.6664L33.4657 21.562ZM32.089 18.8984L34.8314 18.2646V19.5313L32.089 18.8984Z" fill="#78A1FF"/>
</svg>
